<svg xmlns="http://www.w3.org/2000/svg" xmlns:xlink="http://www.w3.org/1999/xlink" width="1920" zoomAndPan="magnify" viewBox="0 0 1440 525.000007" height="700" preserveAspectRatio="xMidYMid meet" version="1.0"><defs><clipPath id="77b461e841"><path d="M 4 36.386719 L 895.914062 36.386719 L 895.914062 485.53125 L 4 485.53125 Z M 4 36.386719 " clip-rule="nonzero"/></clipPath><clipPath id="01238e36e1"><path d="M 882.875 38.753906 L 1070.769531 38.753906 L 1070.769531 487.898438 L 882.875 487.898438 Z M 882.875 38.753906 " clip-rule="nonzero"/></clipPath><clipPath id="492cf885fa"><path d="M 1085.292969 38.753906 L 1261.207031 38.753906 L 1261.207031 487.898438 L 1085.292969 487.898438 Z M 1085.292969 38.753906 " clip-rule="nonzero"/></clipPath><clipPath id="8af75d7198"><path d="M 1250.421875 38.753906 L 1438.3125 38.753906 L 1438.3125 487.898438 L 1250.421875 487.898438 Z M 1250.421875 38.753906 " clip-rule="nonzero"/></clipPath></defs><g clip-path="url(#77b461e841)"><path fill="#fe385c" d="M 762.09375 149.164062 C 762.09375 165.339844 749.0625 178.367188 732.882812 178.367188 C 716.707031 178.367188 703.683594 165.339844 703.683594 149.164062 C 703.683594 132.988281 716.265625 119.964844 732.882812 119.964844 C 749.519531 120.410156 762.09375 133.441406 762.09375 149.164062 Z M 641.679688 208.027344 L 641.679688 215.214844 C 641.679688 215.214844 627.757812 197.234375 598.101562 197.234375 C 549.132812 197.234375 510.9375 234.53125 510.9375 286.195312 C 510.9375 337.417969 548.683594 375.15625 598.101562 375.15625 C 628.207031 375.15625 641.679688 356.738281 641.679688 356.738281 L 641.679688 364.371094 C 641.679688 367.964844 644.382812 370.65625 647.972656 370.65625 L 684.359375 370.65625 L 684.359375 201.714844 L 647.972656 201.714844 C 644.382812 201.730469 641.679688 204.878906 641.679688 208.027344 Z M 641.679688 316.300781 C 634.945312 326.1875 621.464844 334.726562 605.292969 334.726562 C 576.539062 334.726562 554.519531 316.753906 554.519531 286.195312 C 554.519531 255.644531 576.539062 237.671875 605.292969 237.671875 C 621.019531 237.671875 635.394531 246.65625 641.679688 256.09375 Z M 711.320312 201.730469 L 754.453125 201.730469 L 754.453125 370.667969 L 711.320312 370.667969 Z M 1355.613281 197.230469 C 1325.960938 197.230469 1312.027344 215.210938 1312.027344 215.210938 L 1312.027344 120.410156 L 1268.898438 120.410156 L 1268.898438 370.667969 L 1305.292969 370.667969 C 1308.890625 370.667969 1311.578125 367.523438 1311.578125 364.375 L 1311.578125 356.742188 C 1311.578125 356.742188 1325.511719 375.160156 1355.15625 375.160156 C 1404.132812 375.160156 1442.320312 337.433594 1442.320312 286.210938 C 1442.320312 234.988281 1404.132812 197.230469 1355.613281 197.230469 Z M 1348.421875 334.273438 C 1331.792969 334.273438 1318.769531 325.742188 1312.027344 315.851562 L 1312.027344 255.644531 C 1318.769531 246.65625 1333.144531 237.222656 1348.421875 237.222656 C 1377.175781 237.222656 1399.191406 255.195312 1399.191406 285.746094 C 1399.191406 316.300781 1377.179688 334.273438 1348.421875 334.273438 Z M 1246.4375 270.476562 L 1246.4375 371.117188 L 1203.300781 371.117188 L 1203.300781 275.414062 C 1203.300781 247.566406 1194.3125 236.324219 1170.066406 236.324219 C 1157.042969 236.324219 1143.558594 243.066406 1135.007812 252.957031 L 1135.007812 370.671875 L 1091.886719 370.671875 L 1091.886719 201.734375 L 1126.023438 201.734375 C 1129.617188 201.734375 1132.316406 204.878906 1132.316406 208.027344 L 1132.316406 215.214844 C 1144.894531 202.183594 1161.515625 197.234375 1178.136719 197.234375 C 1197.011719 197.234375 1212.738281 202.636719 1225.320312 213.417969 C 1240.589844 225.996094 1246.4375 242.167969 1246.4375 270.476562 Z M 987.1875 197.230469 C 957.539062 197.230469 943.609375 215.210938 943.609375 215.210938 L 943.609375 120.410156 L 900.476562 120.410156 L 900.476562 370.667969 L 936.867188 370.667969 C 940.460938 370.667969 943.160156 367.523438 943.160156 364.375 L 943.160156 356.742188 C 943.160156 356.742188 957.089844 375.160156 986.738281 375.160156 C 1035.714844 375.160156 1073.902344 337.433594 1073.902344 286.210938 C 1074.351562 234.984375 1036.164062 197.230469 987.183594 197.230469 Z M 979.996094 334.273438 C 963.375 334.273438 950.347656 325.742188 943.609375 315.851562 L 943.609375 255.644531 C 950.347656 246.65625 964.726562 237.222656 979.996094 237.222656 C 1008.757812 237.222656 1030.769531 255.195312 1030.769531 285.746094 C 1030.769531 316.300781 1008.757812 334.273438 979.996094 334.273438 Z M 863.183594 197.230469 C 876.210938 197.230469 882.949219 199.484375 882.949219 199.484375 L 882.949219 239.46875 C 882.949219 239.46875 847.007812 227.335938 824.546875 252.949219 L 824.546875 371.113281 L 781.410156 371.113281 L 781.410156 201.730469 L 817.804688 201.730469 C 821.402344 201.730469 824.089844 204.875 824.089844 208.019531 L 824.089844 215.210938 C 832.1875 205.773438 849.710938 197.230469 863.183594 197.230469 Z M 415.242188 355.390625 C 413 350 410.75 344.160156 408.503906 339.214844 C 404.90625 331.128906 401.3125 323.484375 398.171875 316.300781 L 397.722656 315.851562 C 366.71875 248.453125 333.476562 180.167969 298.425781 112.777344 L 297.082031 110.074219 C 293.394531 103.082031 289.800781 96.042969 286.304688 88.957031 C 281.804688 80.863281 277.316406 72.335938 270.128906 64.242188 C 255.75 46.273438 235.082031 36.382812 213.070312 36.382812 C 190.601562 36.382812 170.386719 46.273438 155.566406 63.339844 C 148.824219 71.425781 143.875 79.960938 139.386719 88.054688 C 135.882812 95.136719 132.289062 102.175781 128.613281 109.171875 L 127.261719 111.875 C 92.664062 179.265625 58.96875 247.554688 27.96875 314.949219 L 27.515625 315.84375 C 24.371094 323.042969 20.773438 330.675781 17.175781 338.757812 C 14.933594 343.703125 12.6875 349.09375 10.445312 354.933594 C 4.601562 371.554688 2.800781 387.28125 5.054688 403.460938 C 9.996094 437.160156 32.457031 465.457031 63.460938 478.046875 C 75.144531 482.992188 87.277344 485.234375 99.855469 485.234375 C 103.449219 485.234375 107.9375 484.789062 111.539062 484.332031 C 126.367188 482.539062 141.640625 477.601562 156.472656 469.0625 C 174.890625 458.726562 192.414062 443.90625 212.179688 422.339844 C 231.949219 443.90625 249.921875 458.726562 267.890625 469.0625 C 282.726562 477.601562 297.996094 482.539062 312.820312 484.332031 C 316.417969 484.792969 320.914062 485.234375 324.507812 485.234375 C 337.089844 485.234375 349.667969 482.992188 360.898438 478.046875 C 392.351562 465.457031 414.363281 436.710938 419.308594 403.460938 C 422.878906 387.738281 421.082031 372.019531 415.242188 355.390625 Z M 212.617188 378.753906 C 188.351562 348.199219 172.625 319.445312 167.238281 295.191406 C 164.996094 284.855469 164.542969 275.867188 165.894531 267.78125 C 166.785156 260.589844 169.488281 254.296875 173.082031 248.90625 C 181.621094 236.785156 195.996094 229.140625 212.621094 229.140625 C 229.25 229.140625 244.078125 236.332031 252.164062 248.90625 C 255.761719 254.296875 258.453125 260.59375 259.359375 267.78125 C 260.703125 275.875 260.253906 285.304688 258.007812 295.191406 C 252.601562 318.996094 236.871094 347.753906 212.617188 378.753906 Z M 391.875 399.871094 C 388.734375 423.234375 373.007812 443.457031 350.996094 452.445312 C 340.214844 456.933594 328.527344 458.285156 316.851562 456.933594 C 305.621094 455.582031 294.382812 451.984375 282.707031 445.253906 C 266.53125 436.257812 250.359375 422.339844 231.488281 401.667969 C 261.136719 365.277344 279.109375 332.023438 285.851562 302.378906 C 288.996094 288.445312 289.449219 275.867188 288.09375 264.179688 C 286.304688 252.949219 282.253906 242.613281 275.96875 233.628906 C 262.03125 213.402344 238.664062 201.730469 212.613281 201.730469 C 186.5625 201.730469 163.195312 213.859375 149.265625 233.628906 C 142.980469 242.613281 138.929688 252.949219 137.136719 264.179688 C 135.339844 275.867188 135.785156 288.894531 139.378906 302.378906 C 146.117188 332.023438 164.539062 365.722656 193.738281 402.113281 C 175.316406 422.785156 158.691406 436.714844 142.515625 445.703125 C 130.832031 452.445312 119.609375 456.039062 108.378906 457.378906 C 96.25 458.730469 84.5625 456.933594 74.230469 452.890625 C 52.21875 443.90625 36.492188 423.683594 33.347656 400.320312 C 32.003906 389.089844 32.894531 377.859375 37.394531 365.277344 C 38.734375 360.78125 40.988281 356.292969 43.234375 350.902344 C 46.378906 343.710938 49.964844 336.066406 53.566406 328.433594 L 54.019531 327.539062 C 85.015625 260.589844 118.261719 192.296875 152.859375 125.808594 L 154.203125 123.105469 C 157.804688 116.371094 161.398438 109.183594 164.992188 102.441406 C 168.585938 95.25 172.625 88.507812 177.570312 82.664062 C 187.007812 71.890625 199.582031 66.042969 213.515625 66.042969 C 227.445312 66.042969 240.023438 71.890625 249.457031 82.664062 C 254.40625 88.519531 258.445312 95.261719 262.039062 102.441406 C 265.640625 109.183594 269.234375 116.371094 272.820312 123.105469 L 274.171875 125.808594 C 308.242188 192.582031 341.042969 259.972656 372.566406 327.988281 L 372.566406 328.4375 C 376.167969 335.636719 379.308594 343.714844 382.902344 350.914062 C 385.148438 356.296875 387.398438 360.785156 388.742188 365.28125 C 392.328125 376.953125 393.675781 388.191406 391.875 399.871094 Z M 391.875 399.871094 " fill-opacity="1" fill-rule="nonzero"/></g><g clip-path="url(#01238e36e1)"><path fill="#fe385c" d="M 1201.984375 151.527344 C 1201.984375 167.703125 1215.019531 180.730469 1231.195312 180.730469 C 1247.371094 180.730469 1260.394531 167.703125 1260.394531 151.527344 C 1260.394531 135.351562 1247.816406 122.328125 1231.195312 122.328125 C 1214.558594 122.777344 1201.984375 135.804688 1201.984375 151.527344 Z M 1322.398438 210.390625 L 1322.398438 217.582031 C 1322.398438 217.582031 1336.320312 199.601562 1365.976562 199.601562 C 1414.945312 199.601562 1453.144531 236.894531 1453.144531 288.558594 C 1453.144531 339.78125 1415.394531 377.519531 1365.976562 377.519531 C 1335.875 377.519531 1322.398438 359.101562 1322.398438 359.101562 L 1322.398438 366.734375 C 1322.398438 370.332031 1319.699219 373.019531 1316.105469 373.019531 L 1279.71875 373.019531 L 1279.71875 204.078125 L 1316.105469 204.078125 C 1319.695312 204.09375 1322.398438 207.242188 1322.398438 210.390625 Z M 1322.398438 318.664062 C 1329.132812 328.550781 1342.613281 337.089844 1358.785156 337.089844 C 1387.539062 337.089844 1409.558594 319.117188 1409.558594 288.558594 C 1409.558594 258.007812 1387.539062 240.035156 1358.785156 240.035156 C 1343.058594 240.035156 1328.683594 249.023438 1322.398438 258.457031 Z M 1252.757812 204.09375 L 1209.628906 204.09375 L 1209.628906 373.03125 L 1252.757812 373.03125 Z M 608.464844 199.59375 C 638.121094 199.59375 652.050781 217.574219 652.050781 217.574219 L 652.050781 122.777344 L 695.179688 122.777344 L 695.179688 373.03125 L 658.785156 373.03125 C 655.1875 373.03125 652.5 369.886719 652.5 366.738281 L 652.5 359.105469 C 652.5 359.105469 638.570312 377.527344 608.921875 377.527344 C 559.945312 377.527344 521.757812 339.796875 521.757812 288.574219 C 521.757812 237.351562 559.945312 199.59375 608.464844 199.59375 Z M 615.65625 336.636719 C 632.285156 336.636719 645.308594 328.109375 652.050781 318.214844 L 652.050781 258.007812 C 645.308594 249.023438 630.933594 239.585938 615.65625 239.585938 C 586.902344 239.585938 564.886719 257.558594 564.886719 288.113281 C 564.886719 318.664062 586.898438 336.636719 615.65625 336.636719 Z M 717.640625 272.84375 L 717.640625 373.480469 L 760.78125 373.480469 L 760.78125 277.777344 C 760.78125 249.929688 769.765625 238.691406 794.011719 238.691406 C 807.039062 238.691406 820.519531 245.429688 829.070312 255.320312 L 829.070312 373.039062 L 872.191406 373.039062 L 872.191406 204.097656 L 838.058594 204.097656 C 834.460938 204.097656 831.765625 207.242188 831.765625 210.390625 L 831.765625 217.582031 C 819.183594 204.546875 802.5625 199.601562 785.941406 199.601562 C 767.066406 199.601562 751.339844 205 738.757812 215.78125 C 723.488281 228.363281 717.640625 244.535156 717.640625 272.84375 Z M 976.894531 199.59375 C 1006.539062 199.59375 1020.472656 217.574219 1020.472656 217.574219 L 1020.472656 122.777344 L 1063.601562 122.777344 L 1063.601562 373.03125 L 1027.214844 373.03125 C 1023.617188 373.03125 1020.921875 369.886719 1020.921875 366.738281 L 1020.921875 359.105469 C 1020.921875 359.105469 1006.988281 377.527344 977.34375 377.527344 C 928.363281 377.527344 890.175781 339.796875 890.175781 288.574219 C 889.726562 237.347656 927.914062 199.59375 976.894531 199.59375 Z M 984.082031 336.636719 C 1000.703125 336.636719 1013.730469 328.109375 1020.472656 318.214844 L 1020.472656 258.007812 C 1013.730469 249.023438 999.351562 239.585938 984.082031 239.585938 C 955.320312 239.585938 933.308594 257.558594 933.308594 288.113281 C 933.308594 318.664062 955.320312 336.636719 984.082031 336.636719 Z M 1100.894531 199.59375 C 1087.871094 199.59375 1081.128906 201.847656 1081.128906 201.847656 L 1081.128906 241.832031 C 1081.128906 241.832031 1117.070312 229.699219 1139.53125 255.316406 L 1139.53125 373.476562 L 1182.667969 373.476562 L 1182.667969 204.09375 L 1146.273438 204.09375 C 1142.679688 204.09375 1139.988281 207.238281 1139.988281 210.386719 L 1139.988281 217.574219 C 1131.890625 208.136719 1114.371094 199.59375 1100.894531 199.59375 Z M 1548.835938 357.753906 C 1551.082031 352.363281 1553.328125 346.523438 1555.574219 341.578125 C 1559.171875 333.492188 1562.769531 325.851562 1565.90625 318.664062 L 1566.355469 318.214844 C 1597.359375 250.816406 1630.601562 182.53125 1665.652344 115.140625 L 1667 112.4375 C 1670.683594 105.449219 1674.277344 98.410156 1677.773438 91.320312 C 1682.273438 83.226562 1686.761719 74.699219 1693.953125 66.605469 C 1708.328125 48.636719 1728.996094 38.746094 1751.007812 38.746094 C 1773.476562 38.746094 1793.695312 48.636719 1808.515625 65.707031 C 1815.257812 73.789062 1820.203125 82.324219 1824.691406 90.417969 C 1828.195312 97.5 1831.789062 104.539062 1835.46875 111.535156 L 1836.816406 114.238281 C 1871.414062 181.628906 1905.109375 249.917969 1936.113281 317.3125 L 1936.566406 318.207031 C 1939.707031 325.40625 1943.304688 333.039062 1946.902344 341.121094 C 1949.144531 346.066406 1951.390625 351.457031 1953.632812 357.296875 C 1959.476562 373.917969 1961.277344 389.644531 1959.023438 405.824219 C 1954.082031 439.523438 1931.621094 467.820312 1900.617188 480.410156 C 1888.933594 485.355469 1876.800781 487.601562 1864.226562 487.601562 C 1860.628906 487.601562 1856.140625 487.152344 1852.542969 486.699219 C 1837.710938 484.902344 1822.4375 479.964844 1807.609375 471.429688 C 1789.1875 461.089844 1771.664062 446.269531 1751.898438 424.703125 C 1732.128906 446.269531 1714.160156 461.089844 1696.1875 471.429688 C 1681.351562 479.964844 1666.082031 484.902344 1651.257812 486.699219 C 1647.664062 487.15625 1643.164062 487.601562 1639.570312 487.601562 C 1626.988281 487.601562 1614.414062 485.355469 1603.183594 480.410156 C 1571.726562 467.820312 1549.714844 439.074219 1544.769531 405.824219 C 1541.203125 390.101562 1542.996094 374.382812 1548.835938 357.753906 Z M 1751.460938 381.117188 C 1775.726562 350.5625 1791.453125 321.8125 1796.839844 297.554688 C 1799.085938 287.21875 1799.539062 278.234375 1798.1875 270.144531 C 1797.292969 262.953125 1794.589844 256.660156 1790.996094 251.269531 C 1782.457031 239.148438 1768.082031 231.503906 1751.457031 231.503906 C 1734.828125 231.503906 1720.003906 238.695312 1711.914062 251.269531 C 1708.320312 256.660156 1705.625 262.957031 1704.71875 270.144531 C 1703.378906 278.238281 1703.824219 287.667969 1706.070312 297.554688 C 1711.480469 321.363281 1727.207031 350.121094 1751.460938 381.117188 Z M 1572.203125 402.234375 C 1575.34375 425.597656 1591.074219 445.820312 1613.082031 454.808594 C 1623.863281 459.296875 1635.550781 460.648438 1647.226562 459.296875 C 1658.457031 457.945312 1669.695312 454.351562 1681.371094 447.617188 C 1697.546875 438.621094 1713.71875 424.703125 1732.59375 404.03125 C 1702.941406 367.640625 1684.96875 334.386719 1678.230469 304.742188 C 1675.082031 290.808594 1674.628906 278.234375 1675.984375 266.542969 C 1677.773438 255.316406 1681.824219 244.976562 1688.113281 235.992188 C 1702.046875 215.765625 1725.414062 204.09375 1751.464844 204.09375 C 1777.515625 204.09375 1800.882812 216.226562 1814.8125 235.992188 C 1821.101562 244.976562 1825.148438 255.316406 1826.945312 266.542969 C 1828.738281 278.234375 1828.292969 291.257812 1824.699219 304.742188 C 1817.960938 334.386719 1799.542969 368.085938 1770.339844 404.480469 C 1788.761719 425.148438 1805.386719 439.078125 1821.5625 448.066406 C 1833.246094 454.808594 1844.472656 458.402344 1855.699219 459.746094 C 1867.828125 461.097656 1879.515625 459.296875 1889.847656 455.257812 C 1911.859375 446.269531 1927.585938 426.046875 1930.730469 402.683594 C 1932.074219 391.453125 1931.183594 380.222656 1926.6875 367.640625 C 1925.34375 363.144531 1923.089844 358.65625 1920.847656 353.265625 C 1917.699219 346.074219 1914.113281 338.429688 1910.515625 330.796875 L 1910.058594 329.902344 C 1879.0625 262.953125 1845.816406 194.664062 1811.21875 128.171875 L 1809.875 125.46875 C 1806.273438 118.734375 1802.679688 111.546875 1799.089844 104.804688 C 1795.492188 97.613281 1791.453125 90.871094 1786.507812 85.027344 C 1777.074219 74.253906 1764.496094 68.40625 1750.5625 68.40625 C 1736.632812 68.40625 1724.054688 74.253906 1714.621094 85.027344 C 1709.675781 90.886719 1705.636719 97.625 1702.039062 104.804688 C 1698.441406 111.546875 1694.84375 118.734375 1691.257812 125.46875 L 1689.90625 128.171875 C 1655.835938 194.945312 1623.035156 262.339844 1591.511719 330.351562 L 1591.511719 330.800781 C 1587.914062 338 1584.769531 346.078125 1581.175781 353.277344 C 1578.929688 358.660156 1576.683594 363.148438 1575.335938 367.644531 C 1571.75 379.316406 1570.402344 390.554688 1572.203125 402.234375 Z M 1572.203125 402.234375 " fill-opacity="1" fill-rule="nonzero"/></g><g clip-path="url(#492cf885fa)"><path fill="#fe385c" d="M 762.65625 151.527344 C 762.65625 167.703125 749.621094 180.730469 733.445312 180.730469 C 717.269531 180.730469 704.242188 167.703125 704.242188 151.527344 C 704.242188 135.351562 716.824219 122.328125 733.445312 122.328125 C 750.078125 122.777344 762.65625 135.804688 762.65625 151.527344 Z M 642.238281 210.390625 L 642.238281 217.582031 C 642.238281 217.582031 628.316406 199.601562 598.660156 199.601562 C 549.691406 199.601562 511.496094 236.894531 511.496094 288.558594 C 511.496094 339.78125 549.242188 377.519531 598.660156 377.519531 C 628.765625 377.519531 642.238281 359.101562 642.238281 359.101562 L 642.238281 366.734375 C 642.238281 370.332031 644.941406 373.019531 648.53125 373.019531 L 684.917969 373.019531 L 684.917969 204.078125 L 648.53125 204.078125 C 644.941406 204.09375 642.238281 207.242188 642.238281 210.390625 Z M 642.238281 318.664062 C 635.507812 328.550781 622.023438 337.089844 605.851562 337.089844 C 577.097656 337.089844 555.078125 319.117188 555.078125 288.558594 C 555.078125 258.007812 577.097656 240.035156 605.851562 240.035156 C 621.578125 240.035156 635.957031 249.023438 642.238281 258.457031 Z M 711.882812 204.09375 L 755.011719 204.09375 L 755.011719 373.03125 L 711.882812 373.03125 Z M 1356.171875 199.59375 C 1326.519531 199.59375 1312.585938 217.574219 1312.585938 217.574219 L 1312.585938 122.777344 L 1269.457031 122.777344 L 1269.457031 373.03125 L 1305.855469 373.03125 C 1309.449219 373.03125 1312.136719 369.886719 1312.136719 366.738281 L 1312.136719 359.105469 C 1312.136719 359.105469 1326.070312 377.527344 1355.714844 377.527344 C 1404.695312 377.527344 1442.882812 339.796875 1442.882812 288.574219 C 1442.882812 237.351562 1404.695312 199.59375 1356.171875 199.59375 Z M 1348.984375 336.636719 C 1332.351562 336.636719 1319.328125 328.109375 1312.585938 318.214844 L 1312.585938 258.007812 C 1319.328125 249.023438 1333.703125 239.585938 1348.984375 239.585938 C 1377.734375 239.585938 1399.75 257.558594 1399.75 288.113281 C 1399.75 318.664062 1377.742188 336.636719 1348.984375 336.636719 Z M 1246.996094 272.84375 L 1246.996094 373.480469 L 1203.859375 373.480469 L 1203.859375 277.777344 C 1203.859375 249.929688 1194.871094 238.691406 1170.625 238.691406 C 1157.601562 238.691406 1144.117188 245.429688 1135.566406 255.320312 L 1135.566406 373.039062 L 1092.445312 373.039062 L 1092.445312 204.097656 L 1126.582031 204.097656 C 1130.175781 204.097656 1132.875 207.242188 1132.875 210.390625 L 1132.875 217.582031 C 1145.453125 204.546875 1162.074219 199.601562 1178.695312 199.601562 C 1197.570312 199.601562 1213.296875 205 1225.878906 215.78125 C 1241.148438 228.363281 1246.996094 244.535156 1246.996094 272.84375 Z M 987.746094 199.59375 C 958.097656 199.59375 944.167969 217.574219 944.167969 217.574219 L 944.167969 122.777344 L 901.039062 122.777344 L 901.039062 373.03125 L 937.425781 373.03125 C 941.019531 373.03125 943.71875 369.886719 943.71875 366.738281 L 943.71875 359.105469 C 943.71875 359.105469 957.648438 377.527344 987.296875 377.527344 C 1036.273438 377.527344 1074.460938 339.796875 1074.460938 288.574219 C 1074.910156 237.347656 1036.722656 199.59375 987.746094 199.59375 Z M 980.554688 336.636719 C 963.933594 336.636719 950.910156 328.109375 944.167969 318.214844 L 944.167969 258.007812 C 950.910156 249.023438 965.285156 239.585938 980.554688 239.585938 C 1009.316406 239.585938 1031.328125 257.558594 1031.328125 288.113281 C 1031.328125 318.664062 1009.316406 336.636719 980.554688 336.636719 Z M 863.742188 199.59375 C 876.769531 199.59375 883.511719 201.847656 883.511719 201.847656 L 883.511719 241.832031 C 883.511719 241.832031 847.566406 229.699219 825.105469 255.316406 L 825.105469 373.476562 L 781.96875 373.476562 L 781.96875 204.09375 L 818.363281 204.09375 C 821.960938 204.09375 824.648438 207.238281 824.648438 210.386719 L 824.648438 217.574219 C 832.746094 208.136719 850.269531 199.59375 863.742188 199.59375 Z M 415.800781 357.753906 C 413.558594 352.363281 411.308594 346.523438 409.066406 341.578125 C 405.464844 333.492188 401.871094 325.851562 398.734375 318.664062 L 398.285156 318.214844 C 367.277344 250.816406 334.035156 182.53125 298.988281 115.140625 L 297.640625 112.4375 C 293.953125 105.449219 290.359375 98.410156 286.863281 91.320312 C 282.367188 83.226562 277.878906 74.699219 270.6875 66.605469 C 256.308594 48.636719 235.640625 38.746094 213.628906 38.746094 C 191.160156 38.746094 170.945312 48.636719 156.125 65.707031 C 149.382812 73.789062 144.4375 82.324219 139.949219 90.417969 C 136.441406 97.5 132.847656 104.539062 129.171875 111.535156 L 127.820312 114.238281 C 93.222656 181.628906 59.527344 249.917969 28.527344 317.3125 L 28.074219 318.207031 C 24.929688 325.40625 21.332031 333.039062 17.738281 341.121094 C 15.492188 346.066406 13.25 351.457031 11.003906 357.296875 C 5.160156 373.917969 3.359375 389.644531 5.613281 405.824219 C 10.554688 439.523438 33.015625 467.820312 64.019531 480.410156 C 75.703125 485.355469 87.835938 487.601562 100.414062 487.601562 C 104.007812 487.601562 108.496094 487.152344 112.097656 486.699219 C 126.925781 484.902344 142.199219 479.964844 157.03125 471.429688 C 175.449219 461.089844 192.972656 446.269531 212.742188 424.703125 C 232.507812 446.269531 250.480469 461.089844 268.453125 471.429688 C 283.285156 479.964844 298.554688 484.902344 313.378906 486.699219 C 316.976562 487.15625 321.472656 487.601562 325.070312 487.601562 C 337.648438 487.601562 350.226562 485.355469 361.457031 480.410156 C 392.910156 467.820312 414.921875 439.074219 419.867188 405.824219 C 423.4375 390.101562 421.640625 374.382812 415.800781 357.753906 Z M 213.175781 381.117188 C 188.910156 350.5625 173.183594 321.8125 167.796875 297.554688 C 165.554688 287.21875 165.101562 278.234375 166.453125 270.144531 C 167.34375 262.953125 170.046875 256.660156 173.640625 251.269531 C 182.179688 239.148438 196.554688 231.503906 213.179688 231.503906 C 229.8125 231.503906 244.636719 238.695312 252.722656 251.269531 C 256.320312 256.660156 259.011719 262.957031 259.917969 270.144531 C 261.261719 278.238281 260.8125 287.667969 258.566406 297.554688 C 253.160156 321.363281 237.433594 350.121094 213.175781 381.117188 Z M 392.433594 402.234375 C 389.292969 425.597656 373.566406 445.820312 351.554688 454.808594 C 340.773438 459.296875 329.085938 460.648438 317.410156 459.296875 C 306.179688 457.945312 294.941406 454.351562 283.269531 447.617188 C 267.089844 438.621094 250.917969 424.703125 232.046875 404.03125 C 261.695312 367.640625 279.667969 334.386719 286.410156 304.742188 C 289.554688 290.808594 290.007812 278.234375 288.652344 266.542969 C 286.863281 255.316406 282.816406 244.976562 276.527344 235.992188 C 262.589844 215.765625 239.222656 204.09375 213.171875 204.09375 C 187.121094 204.09375 163.753906 216.226562 149.828125 235.992188 C 143.539062 244.976562 139.488281 255.316406 137.695312 266.542969 C 135.898438 278.234375 136.34375 291.257812 139.9375 304.742188 C 146.675781 334.386719 165.097656 368.085938 194.296875 404.480469 C 175.878906 425.148438 159.253906 439.078125 143.078125 448.066406 C 131.394531 454.808594 120.167969 458.402344 108.9375 459.746094 C 96.808594 461.097656 85.121094 459.296875 74.789062 455.257812 C 52.777344 446.269531 37.050781 426.046875 33.910156 402.683594 C 32.5625 391.453125 33.457031 380.222656 37.953125 367.640625 C 39.292969 363.144531 41.546875 358.65625 43.792969 353.265625 C 46.9375 346.074219 50.523438 338.429688 54.125 330.796875 L 54.578125 329.902344 C 85.574219 262.953125 118.820312 194.664062 153.417969 128.171875 L 154.765625 125.46875 C 158.363281 118.734375 161.960938 111.546875 165.550781 104.804688 C 169.144531 97.613281 173.183594 90.871094 178.132812 85.027344 C 187.566406 74.253906 200.140625 68.40625 214.074219 68.40625 C 228.007812 68.40625 240.582031 74.253906 250.019531 85.027344 C 254.964844 90.886719 259.003906 97.625 262.597656 104.804688 C 266.199219 111.546875 269.792969 118.734375 273.378906 125.46875 L 274.730469 128.171875 C 308.804688 194.945312 341.601562 262.339844 373.125 330.351562 L 373.125 330.800781 C 376.726562 338 379.867188 346.078125 383.464844 353.277344 C 385.707031 358.660156 387.957031 363.148438 389.300781 367.644531 C 392.890625 379.316406 394.234375 390.554688 392.4375 402.234375 Z M 392.433594 402.234375 " fill-opacity="1" fill-rule="nonzero"/></g><g clip-path="url(#8af75d7198)"><path fill="#fe385c" d="M 1569.527344 151.527344 C 1569.527344 167.703125 1582.5625 180.730469 1598.738281 180.730469 C 1614.914062 180.730469 1627.941406 167.703125 1627.941406 151.527344 C 1627.941406 135.351562 1615.359375 122.328125 1598.738281 122.328125 C 1582.105469 122.777344 1569.527344 135.804688 1569.527344 151.527344 Z M 1689.941406 210.390625 L 1689.941406 217.582031 C 1689.941406 217.582031 1703.867188 199.601562 1733.519531 199.601562 C 1782.488281 199.601562 1820.6875 236.894531 1820.6875 288.558594 C 1820.6875 339.78125 1782.9375 377.519531 1733.519531 377.519531 C 1703.417969 377.519531 1689.941406 359.101562 1689.941406 359.101562 L 1689.941406 366.734375 C 1689.941406 370.332031 1687.242188 373.019531 1683.648438 373.019531 L 1647.261719 373.019531 L 1647.261719 204.078125 L 1683.648438 204.078125 C 1687.242188 204.09375 1689.941406 207.242188 1689.941406 210.390625 Z M 1689.941406 318.664062 C 1696.675781 328.550781 1710.160156 337.089844 1726.332031 337.089844 C 1755.082031 337.089844 1777.105469 319.117188 1777.105469 288.558594 C 1777.105469 258.007812 1755.082031 240.035156 1726.332031 240.035156 C 1710.601562 240.035156 1696.226562 249.023438 1689.941406 258.457031 Z M 1620.300781 204.09375 L 1577.171875 204.09375 L 1577.171875 373.03125 L 1620.300781 373.03125 Z M 976.007812 199.59375 C 1005.664062 199.59375 1019.597656 217.574219 1019.597656 217.574219 L 1019.597656 122.777344 L 1062.726562 122.777344 L 1062.726562 373.03125 L 1026.328125 373.03125 C 1022.734375 373.03125 1020.042969 369.886719 1020.042969 366.738281 L 1020.042969 359.105469 C 1020.042969 359.105469 1006.113281 377.527344 976.464844 377.527344 C 927.488281 377.527344 889.300781 339.796875 889.300781 288.574219 C 889.300781 237.351562 927.488281 199.59375 976.007812 199.59375 Z M 983.199219 336.636719 C 999.828125 336.636719 1012.855469 328.109375 1019.597656 318.214844 L 1019.597656 258.007812 C 1012.855469 249.023438 998.476562 239.585938 983.199219 239.585938 C 954.445312 239.585938 932.429688 257.558594 932.429688 288.113281 C 932.429688 318.664062 954.441406 336.636719 983.199219 336.636719 Z M 1085.183594 272.84375 L 1085.183594 373.480469 L 1128.324219 373.480469 L 1128.324219 277.777344 C 1128.324219 249.929688 1137.308594 238.691406 1161.554688 238.691406 C 1174.582031 238.691406 1188.066406 245.429688 1196.613281 255.320312 L 1196.613281 373.039062 L 1239.734375 373.039062 L 1239.734375 204.097656 L 1205.601562 204.097656 C 1202.003906 204.097656 1199.308594 207.242188 1199.308594 210.390625 L 1199.308594 217.582031 C 1186.726562 204.546875 1170.105469 199.601562 1153.484375 199.601562 C 1134.613281 199.601562 1118.882812 205 1106.304688 215.78125 C 1091.035156 228.363281 1085.183594 244.535156 1085.183594 272.84375 Z M 1344.4375 199.59375 C 1374.082031 199.59375 1388.015625 217.574219 1388.015625 217.574219 L 1388.015625 122.777344 L 1431.144531 122.777344 L 1431.144531 373.03125 L 1394.757812 373.03125 C 1391.160156 373.03125 1388.464844 369.886719 1388.464844 366.738281 L 1388.464844 359.105469 C 1388.464844 359.105469 1374.53125 377.527344 1344.886719 377.527344 C 1295.910156 377.527344 1257.71875 339.796875 1257.71875 288.574219 C 1257.273438 237.347656 1295.460938 199.59375 1344.4375 199.59375 Z M 1351.628906 336.636719 C 1368.246094 336.636719 1381.273438 328.109375 1388.015625 318.214844 L 1388.015625 258.007812 C 1381.273438 249.023438 1366.898438 239.585938 1351.628906 239.585938 C 1322.867188 239.585938 1300.855469 257.558594 1300.855469 288.113281 C 1300.855469 318.664062 1322.867188 336.636719 1351.628906 336.636719 Z M 1468.4375 199.59375 C 1455.414062 199.59375 1448.671875 201.847656 1448.671875 201.847656 L 1448.671875 241.832031 C 1448.671875 241.832031 1484.613281 229.699219 1507.074219 255.316406 L 1507.074219 373.476562 L 1550.214844 373.476562 L 1550.214844 204.09375 L 1513.816406 204.09375 C 1510.222656 204.09375 1507.53125 207.238281 1507.53125 210.386719 L 1507.53125 217.574219 C 1499.4375 208.136719 1481.914062 199.59375 1468.4375 199.59375 Z M 1916.378906 357.753906 C 1918.625 352.363281 1920.871094 346.523438 1923.117188 341.578125 C 1926.714844 333.492188 1930.3125 325.851562 1933.449219 318.664062 L 1933.898438 318.214844 C 1964.902344 250.816406 1998.144531 182.53125 2033.195312 115.140625 L 2034.542969 112.4375 C 2038.230469 105.449219 2041.820312 98.410156 2045.320312 91.320312 C 2049.816406 83.226562 2054.304688 74.699219 2061.496094 66.605469 C 2075.871094 48.636719 2096.539062 38.746094 2118.550781 38.746094 C 2141.019531 38.746094 2161.238281 48.636719 2176.058594 65.707031 C 2182.800781 73.789062 2187.746094 82.324219 2192.234375 90.417969 C 2195.742188 97.5 2199.332031 104.539062 2203.011719 111.535156 L 2204.363281 114.238281 C 2238.957031 181.628906 2272.652344 249.917969 2303.65625 317.3125 L 2304.109375 318.207031 C 2307.25 325.40625 2310.851562 333.039062 2314.445312 341.121094 C 2316.691406 346.066406 2318.933594 351.457031 2321.179688 357.296875 C 2327.023438 373.917969 2328.820312 389.644531 2326.570312 405.824219 C 2321.625 439.523438 2299.167969 467.820312 2268.160156 480.410156 C 2256.476562 485.355469 2244.34375 487.601562 2231.769531 487.601562 C 2228.171875 487.601562 2223.683594 487.152344 2220.085938 486.699219 C 2205.253906 484.902344 2189.980469 479.964844 2175.152344 471.429688 C 2156.730469 461.089844 2139.207031 446.269531 2119.441406 424.703125 C 2099.675781 446.269531 2081.703125 461.089844 2063.730469 471.429688 C 2048.898438 479.964844 2033.625 484.902344 2018.800781 486.699219 C 2015.207031 487.15625 2010.707031 487.601562 2007.113281 487.601562 C 1994.53125 487.601562 1981.957031 485.355469 1970.726562 480.410156 C 1939.269531 467.820312 1917.261719 439.074219 1912.3125 405.824219 C 1908.746094 390.101562 1910.539062 374.382812 1916.378906 357.753906 Z M 2119.003906 381.117188 C 2143.269531 350.5625 2158.996094 321.8125 2164.382812 297.554688 C 2166.628906 287.21875 2167.082031 278.234375 2165.730469 270.144531 C 2164.835938 262.953125 2162.136719 256.660156 2158.539062 251.269531 C 2150.003906 239.148438 2135.625 231.503906 2119 231.503906 C 2102.371094 231.503906 2087.546875 238.695312 2079.457031 251.269531 C 2075.863281 256.660156 2073.167969 262.957031 2072.261719 270.144531 C 2070.921875 278.238281 2071.371094 287.667969 2073.613281 297.554688 C 2079.023438 321.363281 2094.75 350.121094 2119.003906 381.117188 Z M 1939.746094 402.234375 C 1942.886719 425.597656 1958.617188 445.820312 1980.628906 454.808594 C 1991.410156 459.296875 2003.097656 460.648438 2014.769531 459.296875 C 2026 457.945312 2037.238281 454.351562 2048.914062 447.617188 C 2065.089844 438.621094 2081.261719 424.703125 2100.136719 404.03125 C 2070.484375 367.640625 2052.515625 334.386719 2045.773438 304.742188 C 2042.625 290.808594 2042.171875 278.234375 2043.527344 266.542969 C 2045.320312 255.316406 2049.367188 244.976562 2055.65625 235.992188 C 2069.59375 215.765625 2092.960938 204.09375 2119.011719 204.09375 C 2145.0625 204.09375 2168.425781 216.226562 2182.355469 235.992188 C 2188.644531 244.976562 2192.691406 255.316406 2194.488281 266.542969 C 2196.28125 278.234375 2195.839844 291.257812 2192.242188 304.742188 C 2185.507812 334.386719 2167.085938 368.085938 2137.882812 404.480469 C 2156.304688 425.148438 2172.929688 439.078125 2189.105469 448.066406 C 2200.789062 454.808594 2212.015625 458.402344 2223.246094 459.746094 C 2235.371094 461.097656 2247.058594 459.296875 2257.394531 455.257812 C 2279.402344 446.269531 2295.132812 426.046875 2298.273438 402.683594 C 2299.621094 391.453125 2298.726562 380.222656 2294.230469 367.640625 C 2292.886719 363.144531 2290.632812 358.65625 2288.390625 353.265625 C 2285.242188 346.074219 2281.65625 338.429688 2278.058594 330.796875 L 2277.605469 329.902344 C 2246.605469 262.953125 2213.359375 194.664062 2178.765625 128.171875 L 2177.417969 125.46875 C 2173.816406 118.734375 2170.222656 111.546875 2166.632812 104.804688 C 2163.035156 97.613281 2158.996094 90.871094 2154.050781 85.027344 C 2144.617188 74.253906 2132.039062 68.40625 2118.109375 68.40625 C 2104.175781 68.40625 2091.597656 74.253906 2082.164062 85.027344 C 2077.21875 90.886719 2073.179688 97.625 2069.582031 104.804688 C 2065.984375 111.546875 2062.386719 118.734375 2058.800781 125.46875 L 2057.453125 128.171875 C 2023.378906 194.945312 1990.582031 262.339844 1959.054688 330.351562 L 1959.054688 330.800781 C 1955.457031 338 1952.3125 346.078125 1948.71875 353.277344 C 1946.476562 358.660156 1944.226562 363.148438 1942.878906 367.644531 C 1939.292969 379.316406 1937.945312 390.554688 1939.746094 402.234375 Z M 1939.746094 402.234375 " fill-opacity="1" fill-rule="nonzero"/></g></svg>