<svg xmlns="http://www.w3.org/2000/svg" xmlns:xlink="http://www.w3.org/1999/xlink" width="1920" zoomAndPan="magnify" viewBox="0 0 1440 525.000007" height="700" preserveAspectRatio="xMidYMid meet" version="1.0"><defs><clipPath id="2b1abbb3b8"><path d="M 4 37.570312 L 885.433594 37.570312 L 885.433594 486.714844 L 4 486.714844 Z M 4 37.570312 " clip-rule="nonzero"/></clipPath><clipPath id="2a73bd9064"><path d="M 885.707031 37.570312 L 1065.367188 37.570312 L 1065.367188 486.714844 L 885.707031 486.714844 Z M 885.707031 37.570312 " clip-rule="nonzero"/></clipPath><clipPath id="87e6879d15"><path d="M 1249.722656 37.570312 L 1429.378906 37.570312 L 1429.378906 486.714844 L 1249.722656 486.714844 Z M 1249.722656 37.570312 " clip-rule="nonzero"/></clipPath><clipPath id="c79236a62a"><path d="M 1081.542969 39.003906 L 1245.480469 39.003906 L 1245.480469 487.398438 L 1081.542969 487.398438 Z M 1081.542969 39.003906 " clip-rule="nonzero"/></clipPath></defs><g clip-path="url(#2b1abbb3b8)"><path fill="#fe385c" d="M 762.09375 150.347656 C 762.09375 166.523438 749.0625 179.546875 732.882812 179.546875 C 716.707031 179.546875 703.683594 166.523438 703.683594 150.347656 C 703.683594 134.171875 716.265625 121.144531 732.882812 121.144531 C 749.519531 121.59375 762.09375 134.625 762.09375 150.347656 Z M 641.679688 209.207031 L 641.679688 216.398438 C 641.679688 216.398438 627.757812 198.417969 598.101562 198.417969 C 549.132812 198.417969 510.9375 235.710938 510.9375 287.378906 C 510.9375 338.601562 548.683594 376.339844 598.101562 376.339844 C 628.207031 376.339844 641.679688 357.917969 641.679688 357.917969 L 641.679688 365.554688 C 641.679688 369.148438 644.382812 371.835938 647.972656 371.835938 L 684.359375 371.835938 L 684.359375 202.898438 L 647.972656 202.898438 C 644.382812 202.910156 641.679688 206.0625 641.679688 209.207031 Z M 641.679688 317.480469 C 634.945312 327.371094 621.464844 335.90625 605.292969 335.90625 C 576.539062 335.90625 554.519531 317.9375 554.519531 287.378906 C 554.519531 256.824219 576.539062 238.855469 605.292969 238.855469 C 621.019531 238.855469 635.394531 247.839844 641.679688 257.273438 Z M 711.320312 202.910156 L 754.453125 202.910156 L 754.453125 371.851562 L 711.320312 371.851562 Z M 1355.613281 198.414062 C 1325.960938 198.414062 1312.027344 216.394531 1312.027344 216.394531 L 1312.027344 121.59375 L 1268.898438 121.59375 L 1268.898438 371.851562 L 1305.292969 371.851562 C 1308.890625 371.851562 1311.578125 368.703125 1311.578125 365.558594 L 1311.578125 357.921875 C 1311.578125 357.921875 1325.511719 376.34375 1355.15625 376.34375 C 1404.132812 376.34375 1442.320312 338.613281 1442.320312 287.390625 C 1442.320312 236.171875 1404.132812 198.414062 1355.613281 198.414062 Z M 1348.421875 335.453125 C 1331.792969 335.453125 1318.769531 326.925781 1312.027344 317.035156 L 1312.027344 256.824219 C 1318.769531 247.839844 1333.144531 238.40625 1348.421875 238.40625 C 1377.175781 238.40625 1399.191406 256.375 1399.191406 286.929688 C 1399.191406 317.480469 1377.179688 335.453125 1348.421875 335.453125 Z M 1246.4375 271.660156 L 1246.4375 372.300781 L 1203.300781 372.300781 L 1203.300781 276.597656 C 1203.300781 248.746094 1194.3125 237.507812 1170.066406 237.507812 C 1157.042969 237.507812 1143.558594 244.25 1135.007812 254.136719 L 1135.007812 371.855469 L 1091.886719 371.855469 L 1091.886719 202.914062 L 1126.023438 202.914062 C 1129.617188 202.914062 1132.316406 206.0625 1132.316406 209.207031 L 1132.316406 216.398438 C 1144.894531 203.363281 1161.515625 198.417969 1178.136719 198.417969 C 1197.011719 198.417969 1212.738281 203.816406 1225.320312 214.597656 C 1240.589844 227.179688 1246.4375 243.351562 1246.4375 271.660156 Z M 987.1875 198.414062 C 957.539062 198.414062 943.609375 216.394531 943.609375 216.394531 L 943.609375 121.59375 L 900.476562 121.59375 L 900.476562 371.851562 L 936.867188 371.851562 C 940.460938 371.851562 943.160156 368.703125 943.160156 365.558594 L 943.160156 357.921875 C 943.160156 357.921875 957.089844 376.34375 986.738281 376.34375 C 1035.714844 376.34375 1073.902344 338.613281 1073.902344 287.390625 C 1074.351562 236.164062 1036.164062 198.414062 987.183594 198.414062 Z M 979.996094 335.453125 C 963.375 335.453125 950.347656 326.925781 943.609375 317.035156 L 943.609375 256.824219 C 950.347656 247.839844 964.726562 238.40625 979.996094 238.40625 C 1008.757812 238.40625 1030.769531 256.375 1030.769531 286.929688 C 1030.769531 317.480469 1008.757812 335.453125 979.996094 335.453125 Z M 863.183594 198.414062 C 876.210938 198.414062 882.949219 200.667969 882.949219 200.667969 L 882.949219 240.648438 C 882.949219 240.648438 847.007812 228.515625 824.546875 254.132812 L 824.546875 372.296875 L 781.410156 372.296875 L 781.410156 202.910156 L 817.804688 202.910156 C 821.402344 202.910156 824.089844 206.058594 824.089844 209.203125 L 824.089844 216.394531 C 832.1875 206.953125 849.710938 198.414062 863.183594 198.414062 Z M 415.242188 356.570312 C 413 351.179688 410.75 345.34375 408.503906 340.394531 C 404.90625 332.3125 401.3125 324.667969 398.171875 317.480469 L 397.722656 317.035156 C 366.71875 249.636719 333.476562 181.347656 298.425781 113.957031 L 297.082031 111.257812 C 293.394531 104.265625 289.800781 97.226562 286.304688 90.140625 C 281.804688 82.046875 277.316406 73.519531 270.128906 65.425781 C 255.75 47.453125 235.082031 37.566406 213.070312 37.566406 C 190.601562 37.566406 170.386719 47.453125 155.566406 64.523438 C 148.824219 72.605469 143.875 81.144531 139.386719 89.238281 C 135.882812 96.320312 132.289062 103.359375 128.613281 110.355469 L 127.261719 113.058594 C 92.664062 180.445312 58.96875 248.738281 27.96875 316.132812 L 27.515625 317.023438 C 24.371094 324.222656 20.773438 331.859375 17.175781 339.9375 C 14.933594 344.882812 12.6875 350.273438 10.445312 356.113281 C 4.601562 372.734375 2.800781 388.460938 5.054688 404.644531 C 9.996094 438.34375 32.457031 466.636719 63.460938 479.226562 C 75.144531 484.171875 87.277344 486.417969 99.855469 486.417969 C 103.449219 486.417969 107.9375 485.96875 111.539062 485.515625 C 126.367188 483.71875 141.640625 478.78125 156.472656 470.246094 C 174.890625 459.910156 192.414062 445.089844 212.179688 423.523438 C 231.949219 445.089844 249.921875 459.910156 267.890625 470.246094 C 282.726562 478.78125 297.996094 483.71875 312.820312 485.515625 C 316.417969 485.972656 320.914062 486.417969 324.507812 486.417969 C 337.089844 486.417969 349.667969 484.171875 360.898438 479.226562 C 392.351562 466.636719 414.363281 437.894531 419.308594 404.644531 C 422.878906 388.921875 421.082031 373.203125 415.242188 356.570312 Z M 212.617188 379.933594 C 188.351562 349.382812 172.625 320.628906 167.238281 296.375 C 164.996094 286.035156 164.542969 277.050781 165.894531 268.960938 C 166.785156 261.773438 169.488281 255.480469 173.082031 250.089844 C 181.621094 237.964844 195.996094 230.320312 212.621094 230.320312 C 229.25 230.320312 244.078125 237.511719 252.164062 250.089844 C 255.761719 255.480469 258.453125 261.777344 259.359375 268.960938 C 260.703125 277.054688 260.253906 286.484375 258.007812 296.375 C 252.601562 320.179688 236.871094 348.9375 212.617188 379.933594 Z M 391.875 401.050781 C 388.734375 424.414062 373.007812 444.640625 350.996094 453.625 C 340.214844 458.113281 328.527344 459.464844 316.851562 458.113281 C 305.621094 456.761719 294.382812 453.167969 282.707031 446.433594 C 266.53125 437.441406 250.359375 423.523438 231.488281 402.847656 C 261.136719 366.460938 279.109375 333.207031 285.851562 303.558594 C 288.996094 289.628906 289.449219 277.050781 288.09375 265.363281 C 286.304688 254.132812 282.253906 243.796875 275.96875 234.808594 C 262.03125 214.585938 238.664062 202.910156 212.613281 202.910156 C 186.5625 202.910156 163.195312 215.042969 149.265625 234.808594 C 142.980469 243.796875 138.929688 254.132812 137.136719 265.363281 C 135.339844 277.050781 135.785156 290.074219 139.378906 303.558594 C 146.117188 333.207031 164.539062 366.90625 193.738281 403.296875 C 175.316406 423.964844 158.691406 437.898438 142.515625 446.882812 C 130.832031 453.625 119.609375 457.21875 108.378906 458.5625 C 96.25 459.914062 84.5625 458.113281 74.230469 454.074219 C 52.21875 445.089844 36.492188 424.863281 33.347656 401.5 C 32.003906 390.269531 32.894531 379.042969 37.394531 366.460938 C 38.734375 361.960938 40.988281 357.472656 43.234375 352.082031 C 46.378906 344.894531 49.964844 337.25 53.566406 329.613281 L 54.019531 328.722656 C 85.015625 261.773438 118.261719 193.480469 152.859375 126.988281 L 154.203125 124.285156 C 157.804688 117.554688 161.398438 110.363281 164.992188 103.621094 C 168.585938 96.429688 172.625 89.691406 177.570312 83.847656 C 187.007812 73.074219 199.582031 67.226562 213.515625 67.226562 C 227.445312 67.226562 240.023438 73.074219 249.457031 83.847656 C 254.40625 89.703125 258.445312 96.445312 262.039062 103.621094 C 265.640625 110.363281 269.234375 117.554688 272.820312 124.285156 L 274.171875 126.988281 C 308.242188 193.761719 341.042969 261.15625 372.566406 329.171875 L 372.566406 329.617188 C 376.167969 336.816406 379.308594 344.898438 382.902344 352.097656 C 385.148438 357.480469 387.398438 361.96875 388.742188 366.464844 C 392.328125 378.132812 393.675781 389.375 391.875 401.050781 Z M 391.875 401.050781 " fill-opacity="1" fill-rule="nonzero"/></g><g clip-path="url(#2a73bd9064)"><path fill="#fe385c" d="M 1200.664062 150.347656 C 1200.664062 166.523438 1213.695312 179.546875 1229.875 179.546875 C 1246.050781 179.546875 1259.074219 166.523438 1259.074219 150.347656 C 1259.074219 134.171875 1246.492188 121.144531 1229.875 121.144531 C 1213.238281 121.59375 1200.664062 134.625 1200.664062 150.347656 Z M 1321.078125 209.207031 L 1321.078125 216.398438 C 1321.078125 216.398438 1335 198.417969 1364.65625 198.417969 C 1413.625 198.417969 1451.820312 235.710938 1451.820312 287.378906 C 1451.820312 338.601562 1414.074219 376.339844 1364.65625 376.339844 C 1334.550781 376.339844 1321.078125 357.917969 1321.078125 357.917969 L 1321.078125 365.554688 C 1321.078125 369.148438 1318.375 371.835938 1314.785156 371.835938 L 1278.398438 371.835938 L 1278.398438 202.898438 L 1314.785156 202.898438 C 1318.375 202.910156 1321.078125 206.0625 1321.078125 209.207031 Z M 1321.078125 317.480469 C 1327.8125 327.371094 1341.292969 335.90625 1357.464844 335.90625 C 1386.21875 335.90625 1408.238281 317.9375 1408.238281 287.378906 C 1408.238281 256.824219 1386.21875 238.855469 1357.464844 238.855469 C 1341.738281 238.855469 1327.363281 247.839844 1321.078125 257.273438 Z M 1251.4375 202.910156 L 1208.304688 202.910156 L 1208.304688 371.851562 L 1251.4375 371.851562 Z M 607.144531 198.414062 C 636.800781 198.414062 650.730469 216.394531 650.730469 216.394531 L 650.730469 121.59375 L 693.859375 121.59375 L 693.859375 371.851562 L 657.464844 371.851562 C 653.867188 371.851562 651.179688 368.703125 651.179688 365.558594 L 651.179688 357.921875 C 651.179688 357.921875 637.246094 376.34375 607.601562 376.34375 C 558.625 376.34375 520.4375 338.613281 520.4375 287.390625 C 520.4375 236.171875 558.625 198.414062 607.144531 198.414062 Z M 614.335938 335.453125 C 630.964844 335.453125 643.988281 326.925781 650.730469 317.035156 L 650.730469 256.824219 C 643.988281 247.839844 629.613281 238.40625 614.335938 238.40625 C 585.582031 238.40625 563.566406 256.375 563.566406 286.929688 C 563.566406 317.480469 585.578125 335.453125 614.335938 335.453125 Z M 716.320312 271.660156 L 716.320312 372.300781 L 759.457031 372.300781 L 759.457031 276.597656 C 759.457031 248.746094 768.445312 237.507812 792.691406 237.507812 C 805.714844 237.507812 819.199219 244.25 827.75 254.136719 L 827.75 371.855469 L 870.871094 371.855469 L 870.871094 202.914062 L 836.734375 202.914062 C 833.140625 202.914062 830.445312 206.0625 830.445312 209.207031 L 830.445312 216.398438 C 817.863281 203.363281 801.242188 198.417969 784.621094 198.417969 C 765.746094 198.417969 750.019531 203.816406 737.4375 214.597656 C 722.167969 227.179688 716.320312 243.351562 716.320312 271.660156 Z M 975.574219 198.414062 C 1005.21875 198.414062 1019.152344 216.394531 1019.152344 216.394531 L 1019.152344 121.59375 L 1062.28125 121.59375 L 1062.28125 371.851562 L 1025.890625 371.851562 C 1022.296875 371.851562 1019.597656 368.703125 1019.597656 365.558594 L 1019.597656 357.921875 C 1019.597656 357.921875 1005.667969 376.34375 976.019531 376.34375 C 927.042969 376.34375 888.855469 338.613281 888.855469 287.390625 C 888.40625 236.164062 926.59375 198.414062 975.574219 198.414062 Z M 982.761719 335.453125 C 999.382812 335.453125 1012.410156 326.925781 1019.152344 317.035156 L 1019.152344 256.824219 C 1012.410156 247.839844 998.03125 238.40625 982.761719 238.40625 C 954 238.40625 931.988281 256.375 931.988281 286.929688 C 931.988281 317.480469 954 335.453125 982.761719 335.453125 Z M 1099.574219 198.414062 C 1086.550781 198.414062 1079.808594 200.667969 1079.808594 200.667969 L 1079.808594 240.648438 C 1079.808594 240.648438 1115.75 228.515625 1138.210938 254.132812 L 1138.210938 372.296875 L 1181.347656 372.296875 L 1181.347656 202.910156 L 1144.953125 202.910156 C 1141.355469 202.910156 1138.667969 206.058594 1138.667969 209.203125 L 1138.667969 216.394531 C 1130.570312 206.953125 1113.046875 198.414062 1099.574219 198.414062 Z M 1547.515625 356.570312 C 1549.757812 351.179688 1552.007812 345.34375 1554.253906 340.394531 C 1557.851562 332.3125 1561.449219 324.667969 1564.585938 317.480469 L 1565.035156 317.035156 C 1596.039062 249.636719 1629.28125 181.347656 1664.332031 113.957031 L 1665.675781 111.257812 C 1669.363281 104.265625 1672.957031 97.226562 1676.453125 90.140625 C 1680.953125 82.046875 1685.441406 73.519531 1692.628906 65.425781 C 1707.007812 47.453125 1727.675781 37.566406 1749.6875 37.566406 C 1772.15625 37.566406 1792.371094 47.453125 1807.195312 64.523438 C 1813.933594 72.605469 1818.882812 81.144531 1823.371094 89.238281 C 1826.875 96.320312 1830.46875 103.359375 1834.148438 110.355469 L 1835.496094 113.058594 C 1870.09375 180.445312 1903.789062 248.738281 1934.789062 316.132812 L 1935.242188 317.023438 C 1938.386719 324.222656 1941.984375 331.859375 1945.582031 339.9375 C 1947.824219 344.882812 1950.070312 350.273438 1952.3125 356.113281 C 1958.15625 372.734375 1959.957031 388.460938 1957.703125 404.644531 C 1952.761719 438.34375 1930.300781 466.636719 1899.296875 479.226562 C 1887.613281 484.171875 1875.480469 486.417969 1862.902344 486.417969 C 1859.308594 486.417969 1854.820312 485.96875 1851.21875 485.515625 C 1836.390625 483.71875 1821.117188 478.78125 1806.285156 470.246094 C 1787.867188 459.910156 1770.34375 445.089844 1750.578125 423.523438 C 1730.808594 445.089844 1712.839844 459.910156 1694.867188 470.246094 C 1680.03125 478.78125 1664.761719 483.71875 1649.9375 485.515625 C 1646.34375 485.972656 1641.84375 486.417969 1638.25 486.417969 C 1625.667969 486.417969 1613.089844 484.171875 1601.863281 479.226562 C 1570.40625 466.636719 1548.394531 437.894531 1543.449219 404.644531 C 1539.878906 388.921875 1541.675781 373.203125 1547.515625 356.570312 Z M 1750.140625 379.933594 C 1774.40625 349.382812 1790.132812 320.628906 1795.519531 296.375 C 1797.761719 286.035156 1798.214844 277.050781 1796.867188 268.960938 C 1795.972656 261.773438 1793.269531 255.480469 1789.675781 250.089844 C 1781.136719 237.964844 1766.761719 230.320312 1750.136719 230.320312 C 1733.507812 230.320312 1718.679688 237.511719 1710.59375 250.089844 C 1707 255.480469 1704.304688 261.777344 1703.398438 268.960938 C 1702.054688 277.054688 1702.503906 286.484375 1704.75 296.375 C 1710.15625 320.179688 1725.886719 348.9375 1750.140625 379.933594 Z M 1570.882812 401.050781 C 1574.023438 424.414062 1589.75 444.640625 1611.761719 453.625 C 1622.542969 458.113281 1634.230469 459.464844 1645.90625 458.113281 C 1657.136719 456.761719 1668.375 453.167969 1680.050781 446.433594 C 1696.226562 437.441406 1712.398438 423.523438 1731.273438 402.847656 C 1701.621094 366.460938 1683.648438 333.207031 1676.90625 303.558594 C 1673.761719 289.628906 1673.308594 277.050781 1674.664062 265.363281 C 1676.453125 254.132812 1680.503906 243.796875 1686.792969 234.808594 C 1700.726562 214.585938 1724.09375 202.910156 1750.144531 202.910156 C 1776.195312 202.910156 1799.5625 215.042969 1813.492188 234.808594 C 1819.777344 243.796875 1823.828125 254.132812 1825.621094 265.363281 C 1827.417969 277.050781 1826.972656 290.074219 1823.378906 303.558594 C 1816.640625 333.207031 1798.222656 366.90625 1769.019531 403.296875 C 1787.441406 423.964844 1804.066406 437.898438 1820.242188 446.882812 C 1831.925781 453.625 1843.148438 457.21875 1854.378906 458.5625 C 1866.507812 459.914062 1878.195312 458.113281 1888.527344 454.074219 C 1910.539062 445.089844 1926.265625 424.863281 1929.410156 401.5 C 1930.753906 390.269531 1929.863281 379.042969 1925.363281 366.460938 C 1924.023438 361.960938 1921.769531 357.472656 1919.523438 352.082031 C 1916.378906 344.894531 1912.792969 337.25 1909.191406 329.613281 L 1908.738281 328.722656 C 1877.742188 261.773438 1844.496094 193.480469 1809.898438 126.988281 L 1808.554688 124.285156 C 1804.953125 117.554688 1801.359375 110.363281 1797.769531 103.621094 C 1794.171875 96.429688 1790.132812 89.691406 1785.1875 83.847656 C 1775.753906 73.074219 1763.175781 67.226562 1749.242188 67.226562 C 1735.3125 67.226562 1722.734375 73.074219 1713.300781 83.847656 C 1708.355469 89.703125 1704.3125 96.445312 1700.71875 103.621094 C 1697.117188 110.363281 1693.523438 117.554688 1689.9375 124.285156 L 1688.585938 126.988281 C 1654.515625 193.761719 1621.714844 261.15625 1590.191406 329.171875 L 1590.191406 329.617188 C 1586.589844 336.816406 1583.449219 344.898438 1579.855469 352.097656 C 1577.609375 357.480469 1575.363281 361.96875 1574.015625 366.464844 C 1570.429688 378.132812 1569.082031 389.375 1570.882812 401.050781 Z M 1570.882812 401.050781 " fill-opacity="1" fill-rule="nonzero"/></g><g clip-path="url(#87e6879d15)"><path fill="#fe385c" d="M 1564.675781 150.347656 C 1564.675781 166.523438 1577.710938 179.546875 1593.886719 179.546875 C 1610.0625 179.546875 1623.089844 166.523438 1623.089844 150.347656 C 1623.089844 134.171875 1610.507812 121.144531 1593.886719 121.144531 C 1577.253906 121.59375 1564.675781 134.625 1564.675781 150.347656 Z M 1685.089844 209.207031 L 1685.089844 216.398438 C 1685.089844 216.398438 1699.015625 198.417969 1728.667969 198.417969 C 1777.636719 198.417969 1815.835938 235.710938 1815.835938 287.378906 C 1815.835938 338.601562 1778.085938 376.339844 1728.667969 376.339844 C 1698.566406 376.339844 1685.089844 357.917969 1685.089844 357.917969 L 1685.089844 365.554688 C 1685.089844 369.148438 1682.390625 371.835938 1678.796875 371.835938 L 1642.410156 371.835938 L 1642.410156 202.898438 L 1678.796875 202.898438 C 1682.390625 202.910156 1685.089844 206.0625 1685.089844 209.207031 Z M 1685.089844 317.480469 C 1691.824219 327.371094 1705.308594 335.90625 1721.480469 335.90625 C 1750.230469 335.90625 1772.253906 317.9375 1772.253906 287.378906 C 1772.253906 256.824219 1750.230469 238.855469 1721.480469 238.855469 C 1705.75 238.855469 1691.375 247.839844 1685.089844 257.273438 Z M 1615.449219 202.910156 L 1572.320312 202.910156 L 1572.320312 371.851562 L 1615.449219 371.851562 Z M 971.15625 198.414062 C 1000.8125 198.414062 1014.742188 216.394531 1014.742188 216.394531 L 1014.742188 121.59375 L 1057.875 121.59375 L 1057.875 371.851562 L 1021.476562 371.851562 C 1017.882812 371.851562 1015.191406 368.703125 1015.191406 365.558594 L 1015.191406 357.921875 C 1015.191406 357.921875 1001.261719 376.34375 971.613281 376.34375 C 922.636719 376.34375 884.449219 338.613281 884.449219 287.390625 C 884.449219 236.171875 922.636719 198.414062 971.15625 198.414062 Z M 978.347656 335.453125 C 994.976562 335.453125 1008.003906 326.925781 1014.742188 317.035156 L 1014.742188 256.824219 C 1008.003906 247.839844 993.625 238.40625 978.347656 238.40625 C 949.59375 238.40625 927.578125 256.375 927.578125 286.929688 C 927.578125 317.480469 949.589844 335.453125 978.347656 335.453125 Z M 1080.332031 271.660156 L 1080.332031 372.300781 L 1123.472656 372.300781 L 1123.472656 276.597656 C 1123.472656 248.746094 1132.457031 237.507812 1156.703125 237.507812 C 1169.730469 237.507812 1183.210938 244.25 1191.761719 254.136719 L 1191.761719 371.855469 L 1234.882812 371.855469 L 1234.882812 202.914062 L 1200.75 202.914062 C 1197.152344 202.914062 1194.457031 206.0625 1194.457031 209.207031 L 1194.457031 216.398438 C 1181.875 203.363281 1165.253906 198.417969 1148.632812 198.417969 C 1129.761719 198.417969 1114.03125 203.816406 1101.453125 214.597656 C 1086.183594 227.179688 1080.332031 243.351562 1080.332031 271.660156 Z M 1339.585938 198.414062 C 1369.230469 198.414062 1383.164062 216.394531 1383.164062 216.394531 L 1383.164062 121.59375 L 1426.292969 121.59375 L 1426.292969 371.851562 L 1389.90625 371.851562 C 1386.308594 371.851562 1383.613281 368.703125 1383.613281 365.558594 L 1383.613281 357.921875 C 1383.613281 357.921875 1369.679688 376.34375 1340.035156 376.34375 C 1291.054688 376.34375 1252.867188 338.613281 1252.867188 287.390625 C 1252.421875 236.164062 1290.609375 198.414062 1339.585938 198.414062 Z M 1346.777344 335.453125 C 1363.394531 335.453125 1376.421875 326.925781 1383.164062 317.035156 L 1383.164062 256.824219 C 1376.421875 247.839844 1362.046875 238.40625 1346.777344 238.40625 C 1318.015625 238.40625 1296.003906 256.375 1296.003906 286.929688 C 1296.003906 317.480469 1318.015625 335.453125 1346.777344 335.453125 Z M 1463.585938 198.414062 C 1450.5625 198.414062 1443.820312 200.667969 1443.820312 200.667969 L 1443.820312 240.648438 C 1443.820312 240.648438 1479.761719 228.515625 1502.222656 254.132812 L 1502.222656 372.296875 L 1545.363281 372.296875 L 1545.363281 202.910156 L 1508.964844 202.910156 C 1505.371094 202.910156 1502.679688 206.058594 1502.679688 209.203125 L 1502.679688 216.394531 C 1494.585938 206.953125 1477.0625 198.414062 1463.585938 198.414062 Z M 1911.527344 356.570312 C 1913.773438 351.179688 1916.019531 345.34375 1918.265625 340.394531 C 1921.863281 332.3125 1925.460938 324.667969 1928.597656 317.480469 L 1929.046875 317.035156 C 1960.050781 249.636719 1993.292969 181.347656 2028.34375 113.957031 L 2029.691406 111.257812 C 2033.378906 104.265625 2036.96875 97.226562 2040.46875 90.140625 C 2044.964844 82.046875 2049.453125 73.519531 2056.644531 65.425781 C 2071.019531 47.453125 2091.6875 37.566406 2113.699219 37.566406 C 2136.167969 37.566406 2156.386719 47.453125 2171.207031 64.523438 C 2177.949219 72.605469 2182.894531 81.144531 2187.382812 89.238281 C 2190.890625 96.320312 2194.480469 103.359375 2198.160156 110.355469 L 2199.511719 113.058594 C 2234.105469 180.445312 2267.800781 248.738281 2298.804688 316.132812 L 2299.257812 317.023438 C 2302.398438 324.222656 2306 331.859375 2309.59375 339.9375 C 2311.839844 344.882812 2314.082031 350.273438 2316.328125 356.113281 C 2322.171875 372.734375 2323.96875 388.460938 2321.71875 404.644531 C 2316.773438 438.34375 2294.316406 466.636719 2263.308594 479.226562 C 2251.625 484.171875 2239.492188 486.417969 2226.917969 486.417969 C 2223.320312 486.417969 2218.832031 485.96875 2215.234375 485.515625 C 2200.402344 483.71875 2185.128906 478.78125 2170.300781 470.246094 C 2151.878906 459.910156 2134.355469 445.089844 2114.589844 423.523438 C 2094.824219 445.089844 2076.851562 459.910156 2058.878906 470.246094 C 2044.042969 478.78125 2028.773438 483.71875 2013.949219 485.515625 C 2010.355469 485.972656 2005.855469 486.417969 2002.261719 486.417969 C 1989.679688 486.417969 1977.105469 484.171875 1965.875 479.226562 C 1934.417969 466.636719 1912.410156 437.894531 1907.460938 404.644531 C 1903.894531 388.921875 1905.6875 373.203125 1911.527344 356.570312 Z M 2114.152344 379.933594 C 2138.417969 349.382812 2154.144531 320.628906 2159.53125 296.375 C 2161.777344 286.035156 2162.230469 277.050781 2160.878906 268.960938 C 2159.984375 261.773438 2157.28125 255.480469 2153.6875 250.089844 C 2145.152344 237.964844 2130.773438 230.320312 2114.148438 230.320312 C 2097.519531 230.320312 2082.695312 237.511719 2074.605469 250.089844 C 2071.011719 255.480469 2068.316406 261.777344 2067.410156 268.960938 C 2066.070312 277.054688 2066.519531 286.484375 2068.761719 296.375 C 2074.171875 320.179688 2089.898438 348.9375 2114.152344 379.933594 Z M 1934.894531 401.050781 C 1938.035156 424.414062 1953.765625 444.640625 1975.777344 453.625 C 1986.558594 458.113281 1998.246094 459.464844 2009.917969 458.113281 C 2021.148438 456.761719 2032.386719 453.167969 2044.0625 446.433594 C 2060.238281 437.441406 2076.410156 423.523438 2095.285156 402.847656 C 2065.632812 366.460938 2047.664062 333.207031 2040.921875 303.558594 C 2037.773438 289.628906 2037.320312 277.050781 2038.675781 265.363281 C 2040.46875 254.132812 2044.515625 243.796875 2050.804688 234.808594 C 2064.742188 214.585938 2088.109375 202.910156 2114.160156 202.910156 C 2140.210938 202.910156 2163.574219 215.042969 2177.503906 234.808594 C 2183.792969 243.796875 2187.839844 254.132812 2189.636719 265.363281 C 2191.429688 277.050781 2190.988281 290.074219 2187.390625 303.558594 C 2180.65625 333.207031 2162.234375 366.90625 2133.03125 403.296875 C 2151.453125 423.964844 2168.078125 437.898438 2184.253906 446.882812 C 2195.9375 453.625 2207.164062 457.21875 2218.394531 458.5625 C 2230.519531 459.914062 2242.207031 458.113281 2252.542969 454.074219 C 2274.550781 445.089844 2290.28125 424.863281 2293.421875 401.5 C 2294.769531 390.269531 2293.875 379.042969 2289.378906 366.460938 C 2288.035156 361.960938 2285.78125 357.472656 2283.539062 352.082031 C 2280.390625 344.894531 2276.804688 337.25 2273.207031 329.613281 L 2272.753906 328.722656 C 2241.753906 261.773438 2208.507812 193.480469 2173.914062 126.988281 L 2172.566406 124.285156 C 2168.964844 117.554688 2165.371094 110.363281 2161.78125 103.621094 C 2158.183594 96.429688 2154.144531 89.691406 2149.199219 83.847656 C 2139.765625 73.074219 2127.1875 67.226562 2113.257812 67.226562 C 2099.324219 67.226562 2086.746094 73.074219 2077.3125 83.847656 C 2072.367188 89.703125 2068.328125 96.445312 2064.730469 103.621094 C 2061.132812 110.363281 2057.535156 117.554688 2053.949219 124.285156 L 2052.597656 126.988281 C 2018.527344 193.761719 1985.730469 261.15625 1954.203125 329.171875 L 1954.203125 329.617188 C 1950.605469 336.816406 1947.460938 344.898438 1943.867188 352.097656 C 1941.621094 357.480469 1939.375 361.96875 1938.027344 366.464844 C 1934.441406 378.132812 1933.09375 389.375 1934.894531 401.050781 Z M 1934.894531 401.050781 " fill-opacity="1" fill-rule="nonzero"/></g><g clip-path="url(#c79236a62a)"><path fill="#fe385c" d="M 755.667969 151.0625 C 755.667969 167.238281 742.632812 180.265625 726.457031 180.265625 C 710.277344 180.265625 697.253906 167.238281 697.253906 151.0625 C 697.253906 134.886719 709.835938 121.859375 726.457031 121.859375 C 743.089844 122.308594 755.667969 135.339844 755.667969 151.0625 Z M 635.25 209.925781 L 635.25 217.113281 C 635.25 217.113281 621.328125 199.132812 591.671875 199.132812 C 542.703125 199.132812 504.507812 236.429688 504.507812 288.09375 C 504.507812 339.316406 542.253906 377.054688 591.671875 377.054688 C 621.777344 377.054688 635.25 358.632812 635.25 358.632812 L 635.25 366.269531 C 635.25 369.863281 637.953125 372.554688 641.542969 372.554688 L 677.929688 372.554688 L 677.929688 203.613281 L 641.542969 203.613281 C 637.953125 203.625 635.25 206.777344 635.25 209.925781 Z M 635.25 318.199219 C 628.519531 328.085938 615.035156 336.625 598.863281 336.625 C 570.109375 336.625 548.089844 318.652344 548.089844 288.09375 C 548.089844 257.542969 570.109375 239.570312 598.863281 239.570312 C 614.589844 239.570312 628.96875 248.554688 635.25 257.992188 Z M 704.894531 203.625 L 748.023438 203.625 L 748.023438 372.566406 L 704.894531 372.566406 Z M 1349.183594 199.128906 C 1319.53125 199.128906 1305.597656 217.109375 1305.597656 217.109375 L 1305.597656 122.308594 L 1262.46875 122.308594 L 1262.46875 372.566406 L 1298.867188 372.566406 C 1302.460938 372.566406 1305.148438 369.421875 1305.148438 366.273438 L 1305.148438 358.640625 C 1305.148438 358.640625 1319.082031 377.058594 1348.726562 377.058594 C 1397.703125 377.058594 1435.890625 339.328125 1435.890625 288.109375 C 1435.890625 236.886719 1397.703125 199.128906 1349.183594 199.128906 Z M 1341.996094 336.171875 C 1325.363281 336.171875 1312.339844 327.640625 1305.597656 317.75 L 1305.597656 257.542969 C 1312.339844 248.554688 1326.714844 239.121094 1341.996094 239.121094 C 1370.746094 239.121094 1392.761719 257.09375 1392.761719 287.644531 C 1392.761719 318.199219 1370.75 336.171875 1341.996094 336.171875 Z M 1240.007812 272.375 L 1240.007812 373.015625 L 1196.871094 373.015625 L 1196.871094 277.3125 C 1196.871094 249.460938 1187.882812 238.222656 1163.636719 238.222656 C 1150.613281 238.222656 1137.128906 244.964844 1128.578125 254.851562 L 1128.578125 372.570312 L 1085.457031 372.570312 L 1085.457031 203.632812 L 1119.59375 203.632812 C 1123.1875 203.632812 1125.886719 206.777344 1125.886719 209.925781 L 1125.886719 217.113281 C 1138.464844 204.082031 1155.085938 199.132812 1171.707031 199.132812 C 1190.582031 199.132812 1206.308594 204.535156 1218.890625 215.316406 C 1234.160156 227.894531 1240.007812 244.066406 1240.007812 272.375 Z M 980.757812 199.128906 C 951.109375 199.128906 937.179688 217.109375 937.179688 217.109375 L 937.179688 122.308594 L 894.050781 122.308594 L 894.050781 372.566406 L 930.4375 372.566406 C 934.03125 372.566406 936.730469 369.421875 936.730469 366.273438 L 936.730469 358.640625 C 936.730469 358.640625 950.660156 377.058594 980.308594 377.058594 C 1029.285156 377.058594 1067.472656 339.328125 1067.472656 288.109375 C 1067.921875 236.882812 1029.734375 199.128906 980.757812 199.128906 Z M 973.566406 336.171875 C 956.945312 336.171875 943.921875 327.640625 937.179688 317.75 L 937.179688 257.542969 C 943.921875 248.554688 958.296875 239.121094 973.566406 239.121094 C 1002.328125 239.121094 1024.339844 257.09375 1024.339844 287.644531 C 1024.339844 318.199219 1002.328125 336.171875 973.566406 336.171875 Z M 856.753906 199.128906 C 869.78125 199.128906 876.523438 201.382812 876.523438 201.382812 L 876.523438 241.367188 C 876.523438 241.367188 840.578125 229.234375 818.117188 254.847656 L 818.117188 373.011719 L 774.980469 373.011719 L 774.980469 203.625 L 811.375 203.625 C 814.972656 203.625 817.660156 206.773438 817.660156 209.917969 L 817.660156 217.109375 C 825.757812 207.671875 843.28125 199.128906 856.753906 199.128906 Z M 408.8125 357.289062 C 406.570312 351.898438 404.320312 346.058594 402.078125 341.113281 C 398.476562 333.027344 394.882812 325.382812 391.746094 318.199219 L 391.296875 317.75 C 360.289062 250.351562 327.046875 182.0625 291.996094 114.675781 L 290.652344 111.972656 C 286.964844 104.980469 283.371094 97.941406 279.875 90.855469 C 275.378906 82.761719 270.890625 74.234375 263.699219 66.140625 C 249.320312 48.167969 228.652344 38.28125 206.640625 38.28125 C 184.171875 38.28125 163.957031 48.167969 149.136719 65.238281 C 142.394531 73.324219 137.449219 81.859375 132.960938 89.953125 C 129.453125 97.035156 125.859375 104.074219 122.183594 111.070312 L 120.832031 113.773438 C 86.234375 181.160156 52.539062 249.453125 21.539062 316.847656 L 21.085938 317.742188 C 17.941406 324.941406 14.34375 332.574219 10.75 340.652344 C 8.503906 345.601562 6.257812 350.992188 4.015625 356.832031 C -1.828125 373.449219 -3.628906 389.179688 -1.375 405.359375 C 3.566406 439.058594 26.027344 467.355469 57.03125 479.945312 C 68.714844 484.890625 80.847656 487.132812 93.425781 487.132812 C 97.019531 487.132812 101.507812 486.683594 105.109375 486.230469 C 119.9375 484.4375 135.210938 479.5 150.042969 470.960938 C 168.460938 460.625 185.984375 445.804688 205.753906 424.238281 C 225.519531 445.804688 243.492188 460.625 261.460938 470.960938 C 276.296875 479.5 291.566406 484.4375 306.390625 486.230469 C 309.988281 486.691406 314.484375 487.132812 318.078125 487.132812 C 330.660156 487.132812 343.238281 484.890625 354.46875 479.945312 C 385.921875 467.355469 407.933594 438.609375 412.878906 405.359375 C 416.449219 389.636719 414.652344 373.917969 408.8125 357.289062 Z M 206.1875 380.652344 C 181.921875 350.097656 166.195312 321.34375 160.808594 297.089844 C 158.566406 286.753906 158.113281 277.765625 159.464844 269.679688 C 160.355469 262.488281 163.058594 256.195312 166.652344 250.804688 C 175.191406 238.679688 189.566406 231.039062 206.191406 231.039062 C 222.820312 231.039062 237.648438 238.226562 245.734375 250.804688 C 249.332031 256.195312 252.023438 262.492188 252.929688 269.679688 C 254.273438 277.769531 253.824219 287.203125 251.578125 297.089844 C 246.171875 320.894531 230.445312 349.652344 206.1875 380.652344 Z M 385.445312 401.769531 C 382.304688 425.132812 366.578125 445.355469 344.566406 454.339844 C 333.785156 458.828125 322.097656 460.179688 310.421875 458.828125 C 299.191406 457.480469 287.953125 453.882812 276.28125 447.152344 C 260.101562 438.15625 243.929688 424.238281 225.058594 403.5625 C 254.707031 367.175781 272.679688 333.921875 279.421875 304.277344 C 282.566406 290.34375 283.019531 277.765625 281.664062 266.078125 C 279.875 254.847656 275.824219 244.511719 269.539062 235.527344 C 255.601562 215.300781 232.234375 203.625 206.183594 203.625 C 180.132812 203.625 156.765625 215.757812 142.839844 235.527344 C 136.550781 244.511719 132.5 254.847656 130.707031 266.078125 C 128.910156 277.765625 129.355469 290.792969 132.949219 304.277344 C 139.6875 333.921875 158.109375 367.621094 187.308594 404.011719 C 168.890625 424.683594 152.265625 438.613281 136.085938 447.601562 C 124.40625 454.339844 113.179688 457.9375 101.949219 459.277344 C 89.820312 460.628906 78.132812 458.828125 67.800781 454.789062 C 45.789062 445.804688 30.0625 425.578125 26.921875 402.21875 C 25.574219 390.988281 26.46875 379.757812 30.964844 367.175781 C 32.304688 362.679688 34.558594 358.191406 36.804688 352.800781 C 39.949219 345.609375 43.535156 337.964844 47.136719 330.332031 L 47.589844 329.4375 C 78.585938 262.488281 111.832031 194.195312 146.429688 127.703125 L 147.777344 125.003906 C 151.375 118.269531 154.96875 111.078125 158.5625 104.339844 C 162.15625 97.148438 166.195312 90.40625 171.140625 84.5625 C 180.578125 73.789062 193.152344 67.941406 207.085938 67.941406 C 221.019531 67.941406 233.59375 73.789062 243.027344 84.5625 C 247.976562 90.417969 252.015625 97.160156 255.609375 104.339844 C 259.210938 111.078125 262.804688 118.269531 266.390625 125.003906 L 267.742188 127.703125 C 301.816406 194.480469 334.613281 261.871094 366.136719 329.886719 L 366.136719 330.335938 C 369.738281 337.535156 372.878906 345.613281 376.476562 352.8125 C 378.71875 358.195312 380.96875 362.683594 382.3125 367.179688 C 385.902344 378.851562 387.246094 390.089844 385.445312 401.769531 Z M 385.445312 401.769531 " fill-opacity="1" fill-rule="nonzero"/></g></svg>