<svg xmlns="http://www.w3.org/2000/svg" xmlns:xlink="http://www.w3.org/1999/xlink" width="1920" zoomAndPan="magnify" viewBox="0 0 1440 525.000007" height="700" preserveAspectRatio="xMidYMid meet" version="1.0"><defs><clipPath id="b0e7a5d8e2"><path d="M 4 36.386719 L 426.558594 36.386719 L 426.558594 485.53125 L 4 485.53125 Z M 4 36.386719 " clip-rule="nonzero"/></clipPath></defs><g clip-path="url(#b0e7a5d8e2)"><path fill="#fe385c" d="M 762.09375 149.164062 C 762.09375 165.339844 749.0625 178.367188 732.882812 178.367188 C 716.707031 178.367188 703.683594 165.339844 703.683594 149.164062 C 703.683594 132.988281 716.265625 119.960938 732.882812 119.960938 C 749.519531 120.410156 762.09375 133.441406 762.09375 149.164062 Z M 641.679688 208.027344 L 641.679688 215.214844 C 641.679688 215.214844 627.757812 197.234375 598.101562 197.234375 C 549.132812 197.234375 510.9375 234.53125 510.9375 286.195312 C 510.9375 337.417969 548.683594 375.15625 598.101562 375.15625 C 628.207031 375.15625 641.679688 356.738281 641.679688 356.738281 L 641.679688 364.371094 C 641.679688 367.964844 644.382812 370.65625 647.972656 370.65625 L 684.359375 370.65625 L 684.359375 201.714844 L 647.972656 201.714844 C 644.382812 201.726562 641.679688 204.878906 641.679688 208.027344 Z M 641.679688 316.300781 C 634.945312 326.1875 621.464844 334.726562 605.292969 334.726562 C 576.539062 334.726562 554.519531 316.753906 554.519531 286.195312 C 554.519531 255.644531 576.539062 237.671875 605.292969 237.671875 C 621.019531 237.671875 635.394531 246.65625 641.679688 256.09375 Z M 711.320312 201.730469 L 754.453125 201.730469 L 754.453125 370.667969 L 711.320312 370.667969 L 711.320312 201.726562 Z M 1355.613281 197.230469 C 1325.960938 197.230469 1312.027344 215.210938 1312.027344 215.210938 L 1312.027344 120.410156 L 1268.898438 120.410156 L 1268.898438 370.667969 L 1305.292969 370.667969 C 1308.890625 370.667969 1311.578125 367.523438 1311.578125 364.375 L 1311.578125 356.742188 C 1311.578125 356.742188 1325.511719 375.160156 1355.15625 375.160156 C 1404.132812 375.160156 1442.320312 337.433594 1442.320312 286.210938 C 1442.320312 234.988281 1404.132812 197.230469 1355.613281 197.230469 Z M 1348.421875 334.273438 C 1331.792969 334.273438 1318.769531 325.742188 1312.027344 315.851562 L 1312.027344 255.644531 C 1318.769531 246.65625 1333.144531 237.222656 1348.421875 237.222656 C 1377.175781 237.222656 1399.191406 255.195312 1399.191406 285.746094 C 1399.191406 316.300781 1377.179688 334.273438 1348.421875 334.273438 Z M 1246.4375 270.476562 L 1246.4375 371.117188 L 1203.300781 371.117188 L 1203.300781 275.414062 C 1203.300781 247.566406 1194.3125 236.324219 1170.066406 236.324219 C 1157.042969 236.324219 1143.558594 243.066406 1135.007812 252.953125 L 1135.007812 370.671875 L 1091.886719 370.671875 L 1091.886719 201.734375 L 1126.023438 201.734375 C 1129.617188 201.734375 1132.316406 204.878906 1132.316406 208.027344 L 1132.316406 215.214844 C 1144.894531 202.183594 1161.515625 197.234375 1178.136719 197.234375 C 1197.011719 197.234375 1212.738281 202.636719 1225.320312 213.417969 C 1240.589844 225.996094 1246.4375 242.167969 1246.4375 270.476562 Z M 987.1875 197.230469 C 957.539062 197.230469 943.609375 215.210938 943.609375 215.210938 L 943.609375 120.410156 L 900.476562 120.410156 L 900.476562 370.667969 L 936.867188 370.667969 C 940.460938 370.667969 943.160156 367.523438 943.160156 364.375 L 943.160156 356.742188 C 943.160156 356.742188 957.089844 375.160156 986.738281 375.160156 C 1035.714844 375.160156 1073.902344 337.433594 1073.902344 286.210938 C 1074.351562 234.984375 1036.164062 197.230469 987.183594 197.230469 Z M 979.996094 334.273438 C 963.375 334.273438 950.347656 325.742188 943.609375 315.851562 L 943.609375 255.644531 C 950.347656 246.65625 964.726562 237.222656 979.996094 237.222656 C 1008.757812 237.222656 1030.769531 255.195312 1030.769531 285.746094 C 1030.769531 316.300781 1008.757812 334.273438 979.996094 334.273438 Z M 863.183594 197.230469 C 876.210938 197.230469 882.949219 199.484375 882.949219 199.484375 L 882.949219 239.46875 C 882.949219 239.46875 847.007812 227.335938 824.546875 252.949219 L 824.546875 371.113281 L 781.410156 371.113281 L 781.410156 201.726562 L 817.804688 201.726562 C 821.402344 201.726562 824.089844 204.875 824.089844 208.019531 L 824.089844 215.210938 C 832.1875 205.773438 849.710938 197.230469 863.183594 197.230469 Z M 415.242188 355.390625 C 413 350 410.75 344.160156 408.503906 339.214844 C 404.90625 331.128906 401.3125 323.484375 398.171875 316.300781 L 397.722656 315.851562 C 366.71875 248.453125 333.476562 180.164062 298.425781 112.777344 L 297.082031 110.074219 C 293.394531 103.082031 289.800781 96.042969 286.304688 88.957031 C 281.804688 80.863281 277.316406 72.335938 270.128906 64.242188 C 255.75 46.273438 235.082031 36.382812 213.070312 36.382812 C 190.601562 36.382812 170.386719 46.273438 155.566406 63.339844 C 148.824219 71.425781 143.875 79.960938 139.386719 88.054688 C 135.882812 95.136719 132.289062 102.175781 128.613281 109.171875 L 127.261719 111.875 C 92.664062 179.265625 58.96875 247.554688 27.96875 314.949219 L 27.515625 315.84375 C 24.371094 323.042969 20.773438 330.675781 17.175781 338.757812 C 14.933594 343.703125 12.6875 349.09375 10.445312 354.933594 C 4.601562 371.554688 2.800781 387.28125 5.054688 403.460938 C 9.996094 437.160156 32.457031 465.457031 63.460938 478.046875 C 75.144531 482.992188 87.277344 485.234375 99.855469 485.234375 C 103.449219 485.234375 107.9375 484.789062 111.539062 484.332031 C 126.367188 482.539062 141.640625 477.601562 156.472656 469.0625 C 174.890625 458.726562 192.414062 443.90625 212.179688 422.339844 C 231.949219 443.90625 249.921875 458.726562 267.890625 469.0625 C 282.726562 477.601562 297.996094 482.539062 312.820312 484.332031 C 316.417969 484.792969 320.914062 485.234375 324.507812 485.234375 C 337.089844 485.234375 349.667969 482.992188 360.898438 478.046875 C 392.351562 465.457031 414.363281 436.710938 419.308594 403.460938 C 422.878906 387.738281 421.082031 372.019531 415.242188 355.390625 Z M 212.617188 378.753906 C 188.351562 348.199219 172.625 319.445312 167.238281 295.191406 C 164.996094 284.855469 164.542969 275.867188 165.894531 267.78125 C 166.785156 260.589844 169.488281 254.296875 173.082031 248.90625 C 181.621094 236.785156 195.996094 229.140625 212.621094 229.140625 C 229.25 229.140625 244.078125 236.328125 252.164062 248.90625 C 255.761719 254.296875 258.453125 260.59375 259.359375 267.78125 C 260.703125 275.871094 260.253906 285.304688 258.007812 295.191406 C 252.601562 318.996094 236.871094 347.753906 212.617188 378.753906 Z M 391.875 399.871094 C 388.734375 423.234375 373.007812 443.457031 350.996094 452.445312 C 340.214844 456.933594 328.527344 458.28125 316.851562 456.933594 C 305.621094 455.582031 294.382812 451.984375 282.707031 445.253906 C 266.53125 436.257812 250.359375 422.339844 231.488281 401.664062 C 261.136719 365.277344 279.109375 332.023438 285.851562 302.378906 C 288.996094 288.445312 289.449219 275.867188 288.09375 264.179688 C 286.304688 252.949219 282.253906 242.613281 275.96875 233.628906 C 262.03125 213.402344 238.664062 201.730469 212.613281 201.730469 C 186.5625 201.730469 163.195312 213.859375 149.265625 233.628906 C 142.980469 242.613281 138.929688 252.949219 137.136719 264.179688 C 135.339844 275.867188 135.785156 288.894531 139.378906 302.378906 C 146.117188 332.023438 164.539062 365.722656 193.738281 402.113281 C 175.316406 422.785156 158.691406 436.714844 142.515625 445.703125 C 130.832031 452.445312 119.609375 456.039062 108.378906 457.378906 C 96.25 458.730469 84.5625 456.933594 74.230469 452.890625 C 52.21875 443.90625 36.492188 423.679688 33.347656 400.320312 C 32.003906 389.089844 32.894531 377.859375 37.394531 365.277344 C 38.734375 360.78125 40.988281 356.292969 43.234375 350.902344 C 46.378906 343.710938 49.964844 336.066406 53.566406 328.433594 L 54.019531 327.539062 C 85.015625 260.589844 118.261719 192.296875 152.859375 125.804688 L 154.203125 123.105469 C 157.804688 116.371094 161.398438 109.179688 164.992188 102.441406 C 168.585938 95.25 172.625 88.507812 177.570312 82.664062 C 187.007812 71.890625 199.582031 66.042969 213.515625 66.042969 C 227.445312 66.042969 240.023438 71.890625 249.457031 82.664062 C 254.40625 88.519531 258.445312 95.261719 262.039062 102.441406 C 265.640625 109.179688 269.234375 116.371094 272.820312 123.105469 L 274.171875 125.804688 C 308.242188 192.582031 341.042969 259.972656 372.566406 327.988281 L 372.566406 328.4375 C 376.167969 335.636719 379.308594 343.714844 382.902344 350.914062 C 385.148438 356.296875 387.398438 360.785156 388.742188 365.28125 C 392.328125 376.953125 393.675781 388.191406 391.875 399.871094 Z M 391.875 399.871094 " fill-opacity="1" fill-rule="nonzero"/></g></svg>